<svg width="17" height="16" viewBox="0 0 17 16" fill="none" xmlns="http://www.w3.org/2000/svg">
<path d="M9.18094 3.81794C9.18094 3.98169 9.18094 4.51541 9.18094 5.27366H11.7879L11.5053 7.59763H9.18094C9.18094 11.1816 9.18094 15.9843 9.18094 15.9843H6.09575C6.09575 15.9843 6.09575 11.2452 6.09575 7.59763H4.48816V5.27366H6.09575C6.09575 4.35204 6.09575 3.69669 6.09575 3.51422C6.09575 2.64485 6.03025 2.23235 6.39966 1.55866C6.76925 0.885005 7.81175 -0.00543266 9.61485 0.0160048C11.4184 0.0382236 12.1786 0.211724 12.1786 0.211724L11.7879 2.6885C11.7879 2.6885 10.6363 2.38441 10.071 2.49279C9.50647 2.60119 9.18094 2.94894 9.18094 3.81794Z" fill="white"/>
</svg>
