<svg width="16" height="16" viewBox="0 0 16 16" fill="none" xmlns="http://www.w3.org/2000/svg">
<g clip-path="url(#clip0_2621_1530)">
<path d="M8.00004 14.6663C6.57055 14.6663 5.54186 14.6656 4.73984 14.5879C3.94701 14.511 3.43984 14.3633 3.03509 14.109C2.57249 13.8183 2.18132 13.4272 1.89065 12.9646C1.6364 12.5599 1.48863 12.0527 1.41186 11.2599C1.33408 10.4579 1.33337 9.42917 1.33337 7.99967C1.33337 6.57018 1.33408 5.54149 1.41186 4.73947C1.48863 3.94664 1.6364 3.43947 1.89065 3.03472C2.18131 2.57211 2.57248 2.18094 3.03509 1.89028C3.43984 1.63604 3.94701 1.48826 4.73984 1.41149C5.54176 1.33371 6.57044 1.33301 8.00004 1.33301C9.42954 1.33301 10.4582 1.33371 11.2602 1.41149C12.0531 1.48826 12.5602 1.63604 12.965 1.89028C13.4276 2.18096 13.8187 2.57212 14.1093 3.03472C14.3637 3.43947 14.5114 3.94664 14.5882 4.73947C14.666 5.54149 14.6667 6.57018 14.6667 7.99967C14.6667 9.42917 14.666 10.4579 14.5882 11.2599C14.5114 12.0527 14.3637 12.5599 14.1093 12.9646C13.8187 13.4272 13.4276 13.8183 12.965 14.109C12.5602 14.3633 12.0531 14.511 11.2602 14.5879C10.4582 14.6656 9.42954 14.6663 8.00004 14.6663Z" fill="white" stroke="white" stroke-width="2"/>
<path d="M8.00004 11.3333C9.4728 11.3333 10.6667 10.1394 10.6667 8.66667C10.6667 7.19391 9.4728 6 8.00004 6C6.52728 6 5.33337 7.19391 5.33337 8.66667C5.33337 10.1394 6.52728 11.3333 8.00004 11.3333Z" fill="white" stroke="black" stroke-width="2"/>
<path d="M11.25 5.5C11.6642 5.5 12 5.16421 12 4.75C12 4.33579 11.6642 4 11.25 4C10.8358 4 10.5 4.33579 10.5 4.75C10.5 5.16421 10.8358 5.5 11.25 5.5Z" fill="black"/>
</g>
<defs>
<clipPath id="clip0_2621_1530">
<rect width="16" height="16" fill="white"/>
</clipPath>
</defs>
</svg>
