<svg width="16" height="16" viewBox="0 0 16 16" fill="none" xmlns="http://www.w3.org/2000/svg">
<path fill-rule="evenodd" clip-rule="evenodd" d="M16 2.91241C15.4121 3.18014 14.7791 3.36119 14.1152 3.44209C14.7932 3.02605 15.3135 2.36637 15.5586 1.58053C14.9238 1.96574 14.2222 2.24599 13.4728 2.39622C12.8755 1.74231 12.0218 1.33398 11.0771 1.33398C9.26548 1.33398 7.79574 2.84115 7.79574 4.69982C7.79574 4.96369 7.82391 5.21987 7.88026 5.4664C5.15208 5.3258 2.73381 3.98717 1.11381 1.9484C0.831132 2.44726 0.669596 3.02605 0.669596 3.6424C0.669596 4.80961 1.24905 5.84007 2.12995 6.44389C1.59277 6.42752 1.08563 6.2744 0.642365 6.02401V6.06541C0.642365 7.69681 1.77402 9.05759 3.27663 9.36576C3.00147 9.44473 2.71128 9.48422 2.41169 9.48422C2.20039 9.48422 1.99378 9.46399 1.79374 9.42451C2.21166 10.7612 3.42313 11.7349 4.86001 11.7609C3.7368 12.6642 2.32059 13.2025 0.783234 13.2025C0.518398 13.2025 0.256383 13.1871 0 13.1563C1.45284 14.1097 3.17896 14.6673 5.03187 14.6673C11.0705 14.6673 14.3715 9.53911 14.3715 5.09082C14.3715 4.94443 14.3687 4.79805 14.3631 4.65456C15.0045 4.17978 15.5614 3.58751 16 2.91241Z" fill="white"/>
</svg>
